<svg width="23" height="20" viewBox="0 0 23 20" fill="none" xmlns="http://www.w3.org/2000/svg">
<path fill-rule="evenodd" clip-rule="evenodd" d="M0.200494 2.40042C0.287345 3.95853 0.730864 4.92315 1.38051 5.51779C1.21774 5.63768 1.09115 5.80011 1.01465 5.98723C0.938143 6.17436 0.91468 6.37894 0.946834 6.57853C1.27803 8.68322 2.10658 13.1346 3.80539 18.1523C3.87168 18.3689 4.00573 18.5584 4.18782 18.6931C4.36991 18.8278 4.59042 18.9005 4.81691 18.9005C5.04341 18.9005 5.26392 18.8278 5.44601 18.6931C5.6281 18.5584 5.76215 18.3689 5.82844 18.1523C7.52666 13.1346 8.3558 8.68322 8.68699 6.57853C8.71914 6.37894 8.69568 6.17436 8.61918 5.98723C8.54267 5.80011 8.41609 5.63768 8.25331 5.51779C8.90296 4.92315 9.34648 3.95853 9.43333 2.40042C9.43684 2.32478 9.42476 2.24923 9.39785 2.17845C9.37093 2.10768 9.32975 2.04319 9.27686 1.989C9.22398 1.93482 9.16051 1.89208 9.09041 1.86345C9.02032 1.83482 8.94508 1.8209 8.86938 1.82257C7.92618 1.83647 7.17752 1.89379 6.59388 2.09007C6.35244 1.45374 5.86549 0.853314 5.13305 0.305574C5.04185 0.237171 4.93092 0.200195 4.81691 0.200195C4.70291 0.200195 4.59198 0.237171 4.50078 0.305574C3.77412 0.849261 3.28891 1.4439 3.04573 2.07444C2.47831 1.90711 1.73602 1.84052 0.766184 1.82373C0.69044 1.82183 0.615115 1.83553 0.544892 1.86398C0.47467 1.89244 0.411052 1.93503 0.357994 1.98912C0.304937 2.04321 0.263574 2.10764 0.236479 2.17839C0.209384 2.24915 0.197135 2.32473 0.200494 2.40042ZM5.90602 3.5428L5.51056 2.50059C5.40113 2.21166 5.18748 1.88684 4.81691 1.54523C4.44982 1.88337 4.23675 2.20529 4.12616 2.49132L3.74228 3.48721L2.71859 3.18497C2.41635 3.09581 2.0041 3.03675 1.42451 3.0049C1.59648 4.12123 2.01047 4.59312 2.3874 4.83688C2.92704 5.18602 3.71333 5.29198 4.79954 5.29314H4.83428C5.92108 5.29198 6.70679 5.18602 7.24584 4.83688C7.62336 4.59312 8.03792 4.12065 8.20989 3.00143C7.64825 3.03096 7.25395 3.08944 6.96271 3.18729L5.90602 3.5428ZM2.09906 6.45115H7.53477C7.36859 7.49741 7.08083 9.11458 6.62573 11.0832H4.23791V12.2412H6.34838C5.94887 13.852 5.44513 15.6469 4.81691 17.5275C4.61626 16.9262 4.4242 16.3221 4.2408 15.7153H4.81691V14.5572H3.90092C3.41316 12.8364 2.98885 11.0982 2.62885 9.34618H4.23791V8.18817H2.40072C2.29193 7.61062 2.19137 7.03156 2.09906 6.45115Z" fill="currentColor" stroke="currentColor" stroke-width="0.4"/>
<path d="M19.4323 11.6793C19.5812 11.7165 19.7093 11.8113 19.7884 11.9429C19.8674 12.0745 19.8909 12.2321 19.8538 12.3811C19.6924 13.0445 19.3517 13.6509 18.8689 14.1337C18.3861 14.6165 17.7797 14.9572 17.1163 15.1186C16.9684 15.1529 16.8129 15.1277 16.6834 15.0485C16.5538 14.9693 16.4606 14.8423 16.4238 14.695C16.387 14.5477 16.4095 14.3918 16.4865 14.261C16.5635 14.1301 16.6888 14.0347 16.8355 13.9954C17.2954 13.8849 17.7158 13.6494 18.0502 13.315C18.3846 12.9806 18.6201 12.5602 18.7306 12.1003C18.7679 11.9514 18.8628 11.8235 18.9943 11.7446C19.1259 11.6657 19.2834 11.6422 19.4323 11.6793Z" fill="currentColor" stroke="currentColor" stroke-width="0.4"/>
<path fill-rule="evenodd" clip-rule="evenodd" d="M16.1945 7.62491C15.553 6.12355 15.6642 4.52897 16.8065 3.38659L15.9878 2.56787C14.6387 3.91696 14.4048 5.68119 14.857 7.30299C12.2075 6.10386 9.4491 8.30872 9.4491 11.6623C9.4491 14.8602 12.3007 17.4524 15.8182 17.4524C19.3356 17.4524 22.1872 14.8602 22.1872 11.6623C22.1872 8.0609 19.0056 5.78483 16.1945 7.62491ZM15.8182 9.38162L15.0944 8.80261C14.0186 7.94221 12.959 7.99027 12.1565 8.4859C11.3077 9.0099 10.6071 10.132 10.6071 11.6623C10.6071 14.119 12.834 16.2944 15.8182 16.2944C18.8024 16.2944 21.0292 14.119 21.0292 11.6623C21.0292 10.1326 20.3286 9.01047 19.4798 8.4859C18.6773 7.99027 17.6171 7.94221 16.5413 8.80319L15.8182 9.38162Z" fill="currentColor" stroke="currentColor" stroke-width="0.4"/>
<path d="M16.9762 5.87208C18.7132 5.87208 19.8712 4.71407 19.8712 2.97705C18.1342 2.97705 16.9762 4.13506 16.9762 5.87208Z" fill="currentColor" stroke="currentColor" stroke-width="0.4"/>
</svg>
